<svg xmlns="http://www.w3.org/2000/svg" width="25" height="25" fill="none" viewBox="0 0 25 25">
  <mask id="a" width="25" height="25" x="0" y="0" maskUnits="userSpaceOnUse" style="mask-type:alpha">
    <path fill="#D9D9D9" d="M.481.535h24v24h-24z"/>
  </mask>
  <g mask="url(#a)">
    <path fill="	#ac70ff" d="M6.481 21.535c-.75 0-1.492-.183-2.225-.55-.733-.366-1.325-.85-1.775-1.45.433 0 .875-.17 1.325-.512.45-.342.675-.838.675-1.488 0-.833.292-1.541.875-2.125a2.893 2.893 0 0 1 2.125-.875c.833 0 1.542.292 2.125.875.583.584.875 1.292.875 2.125 0 1.1-.392 2.042-1.175 2.825-.783.784-1.725 1.175-2.825 1.175Zm5.75-6-2.75-2.75 8.95-8.95a.98.98 0 0 1 .688-.288.932.932 0 0 1 .712.288l1.35 1.35c.2.2.3.434.3.7 0 .267-.1.5-.3.7l-8.95 8.95Z"/>
  </g>
</svg>
