<svg xmlns="http://www.w3.org/2000/svg" width="33" height="27" fill="none" viewBox="0 0 33 27">
  <path fill="#ac70ff" d="M33 3.207a13.487 13.487 0 0 1-3.895 1.055A6.785 6.785 0 0 0 32.08.507a13.293 13.293 0 0 1-4.291 1.646A6.745 6.745 0 0 0 25.54.558 6.705 6.705 0 0 0 22.847 0c-3.747 0-6.761 3.06-6.761 6.814 0 .527.063 1.054.166 1.562a19.174 19.174 0 0 1-13.944-7.13 6.8 6.8 0 0 0-.92 3.44 6.828 6.828 0 0 0 3.014 5.675 6.785 6.785 0 0 1-3.058-.867v.084c0 3.31 2.324 6.055 5.422 6.686-.582.152-1.18.23-1.78.232-.441 0-.858-.044-1.278-.104a6.78 6.78 0 0 0 6.322 4.725 13.493 13.493 0 0 1-8.396 2.911c-.567 0-1.09-.02-1.634-.083A19.05 19.05 0 0 0 10.387 27c12.437 0 19.242-10.377 19.242-19.383 0-.296 0-.591-.02-.887A14.624 14.624 0 0 0 33 3.207Z"/>
</svg>
