<svg xmlns="http://www.w3.org/2000/svg" width="32" height="26" fill="none" viewBox="0 0 32 26">
  <path fill="	#ac70ff" fill-rule="evenodd" d="M24.512 25.713c.43.296.983.37 1.476.188a1.52 1.52 0 0 0 .965-1.092c1.159-5.309 3.97-18.747 5.024-23.576a1 1 0 0 0-.346-.986 1.09 1.09 0 0 0-1.063-.182C24.978 2.083 7.76 8.381.723 10.92c-.446.161-.737.58-.722 1.039.016.46.333.86.79.993 3.156.92 7.299 2.201 7.299 2.201s1.936 5.7 2.945 8.6c.127.363.419.65.804.748.384.098.795-.005 1.081-.269l4.128-3.8s4.763 3.405 7.464 5.28Zm-14.68-11.28 2.239 7.2.497-4.56 13.58-11.942a.354.354 0 0 0 .044-.49.385.385 0 0 0-.501-.083L9.832 14.433Z" clip-rule="evenodd"/>
</svg>
