<svg xmlns="http://www.w3.org/2000/svg" width="24" height="24" fill="none" viewBox="0 0 24 24">
  <mask id="a" width="24" height="24" x="0" y="0" maskUnits="userSpaceOnUse" style="mask-type:alpha">
    <path fill="#D9D9D9" d="M0 0h24v24H0z"/>
  </mask>
  <g mask="url(#a)">
    <path fill="	#ac70ff" d="M4.55 19c-.85 0-1.508-.296-1.975-.887-.467-.592-.642-1.313-.525-2.163l1.05-7.5c.15-1 .596-1.825 1.338-2.475A3.836 3.836 0 0 1 7.05 5h9.9c1 0 1.87.325 2.612.975.742.65 1.188 1.475 1.338 2.475l1.05 7.5c.117.85-.058 1.571-.525 2.163-.467.591-1.125.887-1.975.887a2.51 2.51 0 0 1-.975-.188 2.545 2.545 0 0 1-.825-.562L15.4 16H8.6l-2.25 2.25a2.55 2.55 0 0 1-.825.562A2.51 2.51 0 0 1 4.55 19ZM17 13c.283 0 .52-.096.712-.288A.965.965 0 0 0 18 12a.968.968 0 0 0-.288-.713A.967.967 0 0 0 17 11a.967.967 0 0 0-.712.287A.968.968 0 0 0 16 12c0 .283.096.52.288.712A.965.965 0 0 0 17 13Zm-2-3a.968.968 0 0 0 .713-.288A.967.967 0 0 0 16 9a.97.97 0 0 0-.287-.713A.97.97 0 0 0 15 8a.967.967 0 0 0-.712.287A.968.968 0 0 0 14 9c0 .283.096.52.288.712A.965.965 0 0 0 15 10Zm-7.25 3h1.5v-1.75H11v-1.5H9.25V8h-1.5v1.75H6v1.5h1.75V13Z"/>
  </g>
</svg>
