<svg xmlns="http://www.w3.org/2000/svg" width="25" height="25" fill="none" viewBox="0 0 25 25">
  <mask id="a" width="25" height="25" x="0" y="0" maskUnits="userSpaceOnUse" style="mask-type:alpha">
    <path fill="#D9D9D9" d="M.195.821h24v24h-24z"/>
  </mask>
  <g mask="url(#a)">
    <path fill="	#ac70ff" d="M10.195 21.821c-1.1 0-2.042-.391-2.825-1.175-.784-.783-1.175-1.725-1.175-2.825s.391-2.041 1.175-2.825c.783-.783 1.725-1.175 2.825-1.175.383 0 .737.046 1.062.137.325.092.638.23.938.413V3.821h6v4h-4v10c0 1.1-.392 2.042-1.175 2.825-.784.784-1.725 1.175-2.825 1.175Z"/>
  </g>
</svg>
