<svg xmlns="http://www.w3.org/2000/svg" width="25" height="25" fill="none" viewBox="0 0 25 25">
  <mask id="a" width="25" height="25" x="0" y="0" maskUnits="userSpaceOnUse" style="mask-type:alpha">
    <path fill="#D9D9D9" d="M.548.636h24v24h-24z"/>
  </mask>
  <g mask="url(#a)">
    <path fill="	#ac70ff" d="M12.547 20.636a9.596 9.596 0 0 0-2.6-1.475 8.193 8.193 0 0 0-2.9-.525c-.7 0-1.387.092-2.061.275a9.041 9.041 0 0 0-1.938.775c-.35.184-.688.175-1.012-.025a.966.966 0 0 1-.488-.875V6.736c0-.183.046-.358.138-.525a.86.86 0 0 1 .412-.375c.766-.4 1.566-.7 2.4-.9.833-.2 1.683-.3 2.55-.3.966 0 1.912.125 2.838.375.924.25 1.812.625 2.662 1.125v12.1c.85-.533 1.741-.933 2.675-1.2a10.236 10.236 0 0 1 4.588-.25c.574.1 1.153.25 1.736.45v-12c.25.084.497.171.738.262.242.092.48.205.712.338a.865.865 0 0 1 .413.375c.092.167.137.342.137.525v12.05a.966.966 0 0 1-.486.875c-.326.2-.663.209-1.014.025a9.039 9.039 0 0 0-1.938-.775 7.826 7.826 0 0 0-2.062-.275c-1 0-1.966.175-2.9.525-.933.35-1.8.842-2.6 1.475Zm2-5v-9.5l5-5v10l-5 4.5Z"/>
  </g>
</svg>
