<svg xmlns="http://www.w3.org/2000/svg" width="31" height="31" fill="none" viewBox="0 0 31 31">
  <path fill="	#ac70ff" d="M15.496 10.331a5.18 5.18 0 0 0-5.169 5.169 5.18 5.18 0 0 0 5.169 5.169 5.18 5.18 0 0 0 5.169-5.169 5.18 5.18 0 0 0-5.17-5.169ZM30.998 15.5c0-2.14.02-4.261-.1-6.398-.12-2.482-.687-4.684-2.502-6.499C26.578.784 24.38.223 21.898.102c-2.14-.12-4.262-.1-6.398-.1-2.14 0-4.262-.02-6.398.1-2.482.12-4.684.686-6.499 2.501C.784 4.422.223 6.62.102 9.102c-.12 2.14-.1 4.261-.1 6.398 0 2.137-.02 4.262.1 6.398.12 2.482.686 4.684 2.501 6.499 1.819 1.819 4.017 2.38 6.499 2.501 2.14.12 4.261.1 6.398.1 2.14 0 4.261.02 6.398-.1 2.481-.12 4.684-.686 6.498-2.501 1.819-1.819 2.381-4.017 2.502-6.499.123-2.136.1-4.258.1-6.398Zm-15.502 7.953A7.942 7.942 0 0 1 7.543 15.5a7.942 7.942 0 0 1 7.953-7.953 7.942 7.942 0 0 1 7.953 7.953 7.942 7.942 0 0 1-7.953 7.953Zm8.278-14.374a1.855 1.855 0 0 1-1.857-1.858c0-1.027.83-1.857 1.857-1.857a1.855 1.855 0 0 1 1.717 2.568 1.853 1.853 0 0 1-1.717 1.147Z"/>
</svg>
